<svg xmlns="http://www.w3.org/2000/svg" width="124.609" height="221.002" viewBox="142 2987.655 124.609 221.002"><path d="M262.38 3136.456a1244.943 1244.943 0 0 0 3.864 30.23c.476 3.405.852 7.262-1.338 9.911-1.257 1.52-3.145 2.343-4.958 3.114l-58.784 24.962c-4.835 2.053-9.86 4.144-15.111 3.974-3.442-.112-6.77-1.196-10.045-2.27l-30.52-10.015c-1.024-.335-2.105-.711-2.77-1.558-.84-1.076-.764-2.582-.647-3.943 3.733-43.838 7.47-87.676 11.204-131.514.116-1.356.245-2.757.897-3.95 1.219-2.223 3.878-3.144 6.303-3.88l23.646-7.187c1.501-.456 3.069-.952 4.169-2.072 2.26-2.303 1.61-6.053 1.02-9.225-1.541-8.29-1.568-16.986.975-25.026 1.862-5.88 5.168-11.382 9.753-15.54 1.83-1.66 4.818-4.587 7.328-4.797 3.066-.256 5.97 2.892 7.57 5.124a77.843 77.843 0 0 1 13.44 32.266c.354 2.088.846 4.518 2.751 5.446 1.362.664 2.977.294 4.46-.015 5.831-1.21 12.788-.845 16.532 3.786 2.678 3.32 2.958 7.909 3.14 12.171a1252.402 1252.402 0 0 0 7.12 90.008Zm-10.619-92.337c-.084-1.14-.376-2.389-1.409-2.777-.537-.201-1.132-.098-1.693.018a49.752 49.752 0 0 0-12.929 4.603c-1.567.818-3.23 1.893-3.663 3.608-.656 2.605 1.849 4.982 2.047 7.663.14 1.899-1.121 3.877-2.968 4.339-1.847.462-4.007-.874-4.222-2.766-.18-1.602.877-3.04 1.502-4.526.623-1.486.554-3.646-.955-4.21-.641-.239-1.354-.1-2.021.05-3.548.794-20.22 3.574-18.61 9.523.403 1.493 1.719 2.603 3.161 3.161 1.435.556 3.232.814 3.917 2.192.581 1.167.033 2.567-.62 3.695-.49.847-1.062 1.679-1.865 2.24-.802.563-1.88.813-2.782.428-1.688-.724-1.839-2.99-2.1-4.81a13.762 13.762 0 0 0-2.334-5.908c-.456-.652-1.04-1.307-1.827-1.428-.472-.073-.95.06-1.401.21a16.69 16.69 0 0 0-3.067 1.382c-1.408.815-2.717 1.86-3.614 3.217-1.853 2.8-1.39 7.59-1.366 10.808.034 4.463.445 8.913.494 13.376.089 8.035.174 16.07.263 24.106.16 14.748-1.144 29.6-1.819 44.344l-2.128 46.475c-.015.337-.029.69.113.997.418.91 1.777.783 2.644.285 4.445-2.543 10.007-3.9 14.82-5.776a1111.656 1111.656 0 0 0 49.282-20.583c1.72-.767 3.491-1.576 4.752-2.976 2.422-2.688 2.33-6.788 1.573-10.326-3.774-17.627-4.494-36.477-6.332-54.47-2.243-21.907-3.952-43.786-4.82-65.785-.007-.124-.014-.25-.023-.379Zm-84.678 130.487c.097.474.22.946.372 1.415 1.165 3.577 3.921 6.36 6.13 9.404 3.388 4.67 5.715 10.299 10.304 13.797.78.595 1.943 1.102 2.666.438.432-.397.49-1.046.518-1.632.476-9.611.958-19.223 1.457-28.833.485-9.29.328-18.845 1.427-28.074 1.06-8.869.459-18.184.477-27.168l.056-28.614.044-22.32c0-.468-.004-.963-.248-1.365-.334-.558-1.02-.78-1.652-.94-3.092-.792-6.794-1.565-10.005-1.214-3.452.377-3.686 2.694-4.247 5.835-4.839 27-2.615 54.496-4.748 81.711-.376 4.804-.84 9.664-1.504 14.435-.595 4.306-1.926 8.79-1.047 13.125Zm-21.26 16.293c5.495-1.398 12.067-6.183 15.167-10.94 5.67-8.702 4.519-21.56 5.434-31.531 1.218-13.252.662-26.575.995-39.858.231-9.205.89-18.393 1.727-27.56.41-4.492.864-8.98 1.334-13.467.308-2.947 2.358-8.511-2.02-8.992a37.22 37.22 0 0 0-5.941-.176c-1.073.054-2.18.166-3.11.7-2.856 1.64-2.739 6.222-3.077 9.086-4.367 36.872-6.133 74.28-10.19 111.29-.072.639-1.414 11.572-.318 11.448Zm53.604-159.739c.02.316.046.631.072.946.305 3.823 1.694 7.901 6.348 6.207 2.664-.97 5.486-1.623 8.291-2.06 3.224-.502 3.655-2.282 3.248-5.088-1.559-10.68-5.33-24.062-12.704-32.305-.487-.544-1.179-1.105-1.867-.866-.617.215-.854.948-1 1.585-2.378 10.323-3.145 21.017-2.388 31.581Zm-51.02 163.682c2.665 1.124 5.828 1.594 8.63 2.466 2.126.662 6.202 2.999 8.362 2.754 3.69 1.234 14.66 7.11 18.112 4.418-1.64-2.984-4.6-5.612-6.606-8.439a87.644 87.644 0 0 1-5.989-9.727c-1.24-2.343-3.132-5.153-5.739-4.66-.985.187-1.808.844-2.584 1.48-4.647 3.8-10.052 7.378-14.185 11.708Zm16.733-139.192c9.144-.36 18.035 1.567 27.022 2.481 7.782.791 9.98-2.25 7.419-9.651-.416-1.203-.654-2.472-.923-3.722-.307-1.434-1.195-1.873-2.504-1.457-10.582 3.35-21.463 5.926-31.014 12.35Zm62.12-13.487c-1.405-3.36.307-6.217-4.483-5.301-5.646 1.078-11.287 3.095-16.787 4.755-1.193.36-2.504.818-3.094 1.916-.525.978-.315 2.173-.068 3.255a74.02 74.02 0 0 0 1.916 6.823c.103.312.246.66.554.773.254.095.535-.007.788-.108 5.394-2.162 11.651-5.918 17.447-6.574 3.363-1.004 5.02-2.45 3.728-5.539Zm-1.605-15.587c-1.378-8.528-4.619-16.687-8.515-24.412-1.793-3.557-7.863-15.866-12.947-9.492-1.693 2.125 1.13 2.221 1.978 3.22 7.862 9.263 12.813 20.974 14.486 33 .308 2.207 3.01 7.23 5.029 2.929.486-1.035.385-2.24.24-3.375-.079-.625-.17-1.248-.271-1.87Zm-27.58-25.43c-4.17 3.346-5.187 9.242-5.53 14.592-.478 7.433-.247 14.914.743 22.297.626 4.675 4.817 3.436 4.206-.734-1.79-12.199-2.046-24.114.679-36.233a2.046 2.046 0 0 0-.097.077Zm50.748 36.434c-3.902-4.788-11.67-5.91-17.033-3.171-.588.3-1.173.658-1.546 1.203-1.133 1.653.25 6.918 1.282 8.456.135.2 1.037-.029 1.548-.18 5.087-1.513 11.526-3 15.749-6.308Z" fill="#223f3c" fill-rule="evenodd" data-name="Icon"/></svg>