<svg xmlns="http://www.w3.org/2000/svg" width="72.727" height="72.34" viewBox="0 0 72.727 72.34">
  <g id="Icon" transform="translate(-1.461 -1.813)">
    <path id="Path_143387" data-name="Path 143387" d="M1.761,65.106a6.045,6.045,0,0,0,.374,1.542,4.586,4.586,0,0,0,.9,1.437,5.55,5.55,0,0,0,2.753,1.536c1.578.4,2.543.338,9.994.523.567.017,1.129.039,1.685.055a9.906,9.906,0,0,0,.8,1.718,4.946,4.946,0,0,0,1.074,1.244,4.416,4.416,0,0,0,1.492.782,6.6,6.6,0,0,0,3,.072,16.273,16.273,0,0,0,2.538-.716c2.268-.832,3.632-1.307,6.652-2.4l.149-.05c6.569.27,12.555.485,18.017.54,4.441.026,3.314.022,4.251.022a3.613,3.613,0,0,0,1.878-.407,2.466,2.466,0,0,0,.842-.843,3.6,3.6,0,0,0,.369-.9,39.8,39.8,0,0,0,.556-7.368c5.26-1.847,8.762-3.172,12.9-4.758a4.093,4.093,0,0,0,1.481-.87,2.436,2.436,0,0,0,.589-.953,2.708,2.708,0,0,0,.138-.986,7.178,7.178,0,0,0-.226-1.421C72.475,46.3,71.6,48.383,59.55,13.406c-.457-1.333-.622-1.388-.771-1.344s-.27.182-.083,1.536c.028.215.066.463.11.754C60.67,26.46,70.56,47.327,71.868,53.372a5.675,5.675,0,0,1,.171,1.013.794.794,0,0,1-.028.248.226.226,0,0,1-.077.11,2.16,2.16,0,0,1-.732.38C62.692,58.387,23.49,71.846,23.434,71.857a4.49,4.49,0,0,1-1.977-.011,2.257,2.257,0,0,1-1.338-1.068,4.555,4.555,0,0,1-.264-.49c-.027-.055-13.813-34.9-13.832-34.96a33.471,33.471,0,0,1-1.366-5.275A6.159,6.159,0,0,1,5.8,25.443,14.1,14.1,0,0,1,9.6,22a34.944,34.944,0,0,1,4.636-2.473c1.591-.721,3.216-1.366,4.818-2.015s3.183-1.289,4.736-1.916c3.1-1.261,6.09-2.472,8.942-3.634l2.44-.995c.061.193.123.384.179.584a20.02,20.02,0,0,1,.681,4.507,15.351,15.351,0,0,1-.667,5.205,10.4,10.4,0,0,1-2.829,4.6,4.769,4.769,0,0,1-2.214,1.087,6.719,6.719,0,0,1-2.557-.038,7.6,7.6,0,0,1-2.348-.895,8.764,8.764,0,0,1-1.864-1.491,14.94,14.94,0,0,1-2.412-3.437c-1.125-2.172-1.647-3.643-1.816-3.584-.071.023-.034.414.124,1.1a19.6,19.6,0,0,0,.9,2.851,14.324,14.324,0,0,0,2.271,3.908,9.748,9.748,0,0,0,2.039,1.862,8.9,8.9,0,0,0,2.743,1.23,8.235,8.235,0,0,0,3.212.2,6.506,6.506,0,0,0,3.14-1.388,12.124,12.124,0,0,0,3.57-5.353,16.922,16.922,0,0,0,.9-5.906,20.815,20.815,0,0,0-.717-5.061c-.079-.283-.166-.558-.256-.831,5.06-2.074,9.694-3.98,10.6-4.3,4.006-1.294,7.018-.973,9.24,2.61A17.176,17.176,0,0,1,58.366,11.1a3.6,3.6,0,0,0,.413.964,3.8,3.8,0,0,0-.193-1.035,14,14,0,0,0-1.1-2.825c-2.177-3.978-5.6-4.478-9.9-3.21-1.408.453-10.553,3.981-10.611,4h-.122C33.039-.54,25.127.27,23.435,6.463c-.06.38-.119.711-.139,1,0,.294.009.546.021.761a2.563,2.563,0,0,0,.164.788c-3.94.012-6.617-.044-9.385.227a22.728,22.728,0,0,0-5.589,1.184c-3.071,1.125-5.411,3.164-6.2,6.393a45.213,45.213,0,0,0-.842,8.766c-.028,3.893.253,7.759.363,11.563.213,9.172-.317,25.872-.066,27.956ZM41.126,68.09c5.694-1.949,10.963-3.739,15.831-5.44a38.384,38.384,0,0,1-.523,6.057,1.283,1.283,0,0,1-.132.336.271.271,0,0,1-.094.1,1.72,1.72,0,0,1-.765.094c-5.27,0-11.3-.182-16.486-.391.738-.253,1.459-.507,2.17-.754Zm-24.889-1.2c.132.352.259.7.385,1.052-.253-.011-.512-.022-.771-.028-7.649-.189-8.259-.106-9.521-.424a3.374,3.374,0,0,1-1.7-.9,2.988,2.988,0,0,1-.721-1.757c0-.017.054-22.408-.121-27.747-.039-1.074-.094-2.147-.149-3.221.187.688.391,1.366.611,2.043,2.191,6.705,1.567,2.351,11.982,30.979Zm8.332-58.6c.046-.177.092-.38.138-.612l.249-.764c2-4.389,6.522-4.265,9.459,2.085l-9.627.016H24.41C24.464,8.84,24.481,8.6,24.569,8.288ZM9.09,11.98a21.032,21.032,0,0,1,5.171-1.156c2.779-.312,5.535-.289,10.545-.385,3.051-.061,6.013-.116,8.849-.165-.457.176-.92.352-1.382.529-2.869,1.107-5.881,2.269-9.008,3.469-1.558.606-3.15,1.217-4.758,1.845s-3.26,1.244-4.912,1.966A35.535,35.535,0,0,0,8.7,20.608a15.522,15.522,0,0,0-4.317,3.833,8.8,8.8,0,0,0-1.052,1.927c-.006-.259-.011-.518-.011-.776C3.3,18.13,3.647,14.076,9.09,11.98Z"/>
  </g>
</svg>
