<svg xmlns="http://www.w3.org/2000/svg" width="15.107" height="15.107" viewBox="0 0 15.107 15.107">
  <path id="Path_141824" data-name="Path 141824" d="M10.553,18.107a7.358,7.358,0,0,1-2.946-.595A7.54,7.54,0,0,1,3.595,13.5a7.591,7.591,0,0,1,0-5.891A7.542,7.542,0,0,1,7.606,3.6a7.588,7.588,0,0,1,5.891,0,7.544,7.544,0,0,1,4.015,4.013,7.351,7.351,0,0,1,.6,2.946,7.744,7.744,0,0,1-.079,1.112,6.968,6.968,0,0,1-.242,1.07,2.4,2.4,0,0,0-.351-.252,1.447,1.447,0,0,0-.406-.161,5.42,5.42,0,0,0,.183-.866,7.163,7.163,0,0,0,.056-.9,6.48,6.48,0,0,0-1.951-4.763,6.48,6.48,0,0,0-4.763-1.951A6.48,6.48,0,0,0,5.791,5.791a6.48,6.48,0,0,0-1.951,4.763,6.48,6.48,0,0,0,1.951,4.763,6.48,6.48,0,0,0,4.763,1.951,6.574,6.574,0,0,0,2.15-.349,6.91,6.91,0,0,0,1.867-.976,3.409,3.409,0,0,0,.3.307,1.581,1.581,0,0,0,.351.242,7.712,7.712,0,0,1-2.151,1.19A7.331,7.331,0,0,1,10.553,18.107ZM16.4,15.169a.624.624,0,1,1,.446-.183A.61.61,0,0,1,16.4,15.169Zm-2.783-.962-3.48-3.48V6.357h.839v4.022l3.234,3.234Z" transform="translate(-3 -3)"/>
</svg>
