<svg xmlns="http://www.w3.org/2000/svg" width="88.128" height="81.361" viewBox="0 0 88.128 81.361">
  <g id="Icon" transform="translate(-0.997 -3.458)">
    <path id="Path_143399" data-name="Path 143399" d="M87.587,65.9c-.991-6.857-2.74-16.647-4.957-28.764-1.129-6.058-2.355-12.681-3.814-19.8l-.3-1.363-.33-1.308c-.207-.895-.413-1.8-.62-2.713a16.528,16.528,0,0,0-2.052-5.59,6.564,6.564,0,0,0-5.659-2.905,17.121,17.121,0,0,0-3.153.317l-2.974.578C55.739,5.9,47.34,7.523,38.651,9.2c-4.351.84-8.771,1.707-13.26,2.575-2.244.441-4.5.881-6.788,1.322-2.272.482-4.558.8-6.926,1.4a14.551,14.551,0,0,0-3.5,1.349,6.383,6.383,0,0,0-2.7,2.947,7.768,7.768,0,0,0-.509,3.828,11.284,11.284,0,0,0,.262,1.762L5.55,26.1c.84,4.5,1.666,8.95,2.478,13.3,1.611,8.716,3.25,17.088,4.585,25.115.7,4.021,1.377,7.917,2.231,11.731a16.024,16.024,0,0,0,.867,2.892,11.226,11.226,0,0,0,1.6,2.589A8.177,8.177,0,0,0,19.65,83.68a9.657,9.657,0,0,0,2.823.964,18.654,18.654,0,0,0,5.549-.083c1.762-.248,3.442-.606,5.095-.909L42.6,81.835c12.089-2.327,21.865-4.241,28.626-5.6,3.373-.7,5.99-1.184,7.78-1.583a9.521,9.521,0,0,0,2.644-.84c-.028-.069-.936.179-2.726.482-1.776.275-4.447.647-7.835,1.239C64.73,76.6,55.684,78.186,44.614,80.155c.248-2.189,0-9.583-1.239-18.285a105.815,105.815,0,0,0-3.759-17.693A39.182,39.182,0,0,1,43.168,48.4c1.983,2.781,2.781,5.535,3.3,5.453.234-.041.358-.826.138-2.052a11.665,11.665,0,0,0-1.928-4.447,12.042,12.042,0,0,0-3.5-3.346c-1.06-.633-1.831-.8-1.969-.606-.028-.014-.055-.055-.069-.041-.509.11.95,8.454,2.4,18.781,1.239,8.716,2.052,16.055,2.6,18.12-.592.11-1.17.207-1.776.317-3.029.537-6.21,1.115-9.514,1.707-3.291.551-6.761,1.432-10.107.895-3.387-.441-5.756-3.594-6.306-7.243-.812-3.731-1.46-7.656-2.134-11.649-.867-5.453-1.9-11.084-2.96-16.853a15.7,15.7,0,0,0,3.566-.3A15.232,15.232,0,0,0,18.452,46.1c.083.441.179.881.262,1.308a6.919,6.919,0,0,0,.592,1.969,3.037,3.037,0,0,0,.757.964,2.224,2.224,0,0,0,1.253.5,2.819,2.819,0,0,0,2.038-.867c.441-.427.757-.854,1.06-1.2s.62-.688.923-.991c2.492-2.437,4.571-3.36,4.447-3.635-.055-.193-2.4.289-5.315,2.657-.358.3-.73.633-1.088.991s-.7.744-1.046,1.033a1.3,1.3,0,0,1-.895.4c-.22-.028-.4-.165-.606-.592a20.185,20.185,0,0,1-.7-3.415c-.234-1.281-.468-2.6-.7-3.952-.124-.675-.248-1.349-.372-2-.055-.3-.124-.688-.22-1.033-.083-.317-.165-.62-.234-.936a2.919,2.919,0,0,1-.11-1.4c.11-.22.207-.441.3-.661a5.652,5.652,0,0,1,.4-.551,2.568,2.568,0,0,1,2.41-.537,10.118,10.118,0,0,1,2.561.936,40.428,40.428,0,0,1,4.172,2.589,8.171,8.171,0,0,0,.069,2.589,7.859,7.859,0,0,0,3.208,5.108,3.6,3.6,0,0,0-1.377.923,8.8,8.8,0,0,0-2.313,4.1,8.616,8.616,0,0,0,.083,4.709c.386,1.157.909,1.735,1.129,1.639.5-.207-.248-2.823.592-5.893.647-2.685,2.148-4.53,2.313-5.232a4.458,4.458,0,0,0,.826.372,34.993,34.993,0,0,0,.5,5.012c.413,3.167.964,7.559,1.5,12.406,1.115,9.707,1.68,17.583,2.107,17.6.578.014.854-8.027-.275-17.8a107.362,107.362,0,0,0-2.052-12.434,25.7,25.7,0,0,0-1.432-4.654.048.048,0,0,1,.028.014,4.954,4.954,0,0,0,3.552-.33,5.4,5.4,0,0,0,2.162-2.107,6.547,6.547,0,0,0,.8-4.021c-.124-.95-.386-1.432-.5-1.4-.138.028-.138.537-.234,1.4a7.191,7.191,0,0,1-1.184,3.318,4.2,4.2,0,0,1-1.721,1.432,3.434,3.434,0,0,1-2.41.083,5.81,5.81,0,0,1-3.5-4.571,5.833,5.833,0,0,1,1.625-5.521,3.511,3.511,0,0,1,2.272-.785,4.284,4.284,0,0,1,2.12.716,7.279,7.279,0,0,1,2.3,2.671c.4.771.578,1.253.716,1.239.11-.014.179-.551-.041-1.487a6.557,6.557,0,0,0-1.694-3,42.608,42.608,0,0,0-1.487-10.644c-1.432-5.742-3.525-10.175-4.2-10.671,11.263-2.231,22.086-4.365,32.247-6.375.991-.193,2-.4,2.974-.592l1.418-.22c.468-.069.923-.055,1.377-.083A4.905,4.905,0,0,1,74.19,7.33a15.751,15.751,0,0,1,1.859,5.04c.22.909.427,1.818.633,2.713l.344,1.349.3,1.294c.661,3.084,1.267,6.058,1.859,8.964-1.68-.124-7.077.482-13.411,1.707-7.614,1.473-13.645,3.277-13.535,3.773s6.306-.5,13.879-1.969c6.334-1.225,11.621-2.4,13.15-3.043.73,3.58,1.4,7.022,2.065,10.272,2.382,12.062,4.324,21.865,5.535,28.6a7.058,7.058,0,0,1-.578,4.268,6.155,6.155,0,0,1-2.217,2.3c-1.515.923-2.478,1.157-2.437,1.253a2.067,2.067,0,0,0,.7-.138,9.692,9.692,0,0,0,1.928-.785,6.388,6.388,0,0,0,2.506-2.341,7.721,7.721,0,0,0,.812-4.682ZM14.569,45.264a15.55,15.55,0,0,0-3.442.991c-.344-1.859-.688-3.745-1.033-5.632a12.579,12.579,0,0,0,3.456-.248,10.915,10.915,0,0,0,3.621-1.2c.014.11.041.22.069.344.124.661.248,1.322.358,2,.22,1.17.441,2.313.647,3.429A16.1,16.1,0,0,0,14.569,45.264ZM24.786,33.891A10.216,10.216,0,0,0,21.922,32.6a5.427,5.427,0,0,0-1.914-.138,6.419,6.419,0,0,0-1.06.289,4.926,4.926,0,0,0-.936.647,5.237,5.237,0,0,0-.7.867c-.165.33-.344.62-.5,1.005a4.558,4.558,0,0,0,.014,2.368c.055.248.124.5.179.744a11.245,11.245,0,0,0-3.773.179,12.652,12.652,0,0,0-3.3,1.005c-.028-.165-.055-.33-.1-.5q-1.2-6.527-2.451-13.26c-.4-2.231-1.005-4.516-.179-6.293.716-1.79,2.809-2.7,4.971-3.25,3.649-.716,7.243-1.432,10.809-2.134a85.02,85.02,0,0,0,2.864,10.079c1.583,4.833,3.015,8.881,3.745,10.038a7.109,7.109,0,0,0-1.157,2.685,19.308,19.308,0,0,0-3.649-3.043Zm9.432-10.382c1.005,3.952,1.776,7.449,2.341,9.4a5.3,5.3,0,0,0-2.327-.867,4.891,4.891,0,0,0-3.442.964,8.492,8.492,0,0,0-.744.661,54.894,54.894,0,0,0-2.465-10.038A53.2,53.2,0,0,0,23.6,14.008q4.027-.805,8-1.583C31.381,13.141,32.786,17.795,34.218,23.509Z" transform="translate(1.482 0)"/>
    <path id="Path_143400" data-name="Path 143400" d="M71.164,28.029c-.069-.5-6.513-.1-14.361,1.281a82.252,82.252,0,0,0-13.122,3.153c-.151-1.308-.33-2.644-.551-4.021-.234-1.473-.482-2.878-.771-4.282a7,7,0,0,0-.826-2.189,3.754,3.754,0,0,0-1.928-1.6,3.226,3.226,0,0,0-2.423.179,6.5,6.5,0,0,0-1.625,1.129c-.867.8-1.611,1.542-2.286,2.258-2.671,2.864-3.979,4.916-3.787,5.067.207.179,1.859-1.57,4.7-4.131.716-.633,1.515-1.336,2.355-2.024s1.79-1.184,2.506-.881A3.128,3.128,0,0,1,40.6,24.532c.248,1.322.5,2.754.73,4.2s.441,2.864.62,4.227c.083.688.179,1.363.262,2.024.041.33.083.661.124.978a5.316,5.316,0,0,1,.069.826.57.57,0,0,1-.11.372,1.064,1.064,0,0,1-.427.3,3.188,3.188,0,0,1-1.377.207,7.668,7.668,0,0,1-2.768-.757,18.249,18.249,0,0,0-4.365-1.625c-1.143-.165-1.762.055-1.749.151.014.151.606.179,1.57.537a31.132,31.132,0,0,1,3.979,2.107A8.61,8.61,0,0,0,40.39,39.2a4.091,4.091,0,0,0,1.005,0,3.683,3.683,0,0,0,1.088-.234,2.725,2.725,0,0,0,1.074-.716,2.28,2.28,0,0,0,.551-1.363,8.656,8.656,0,0,0-.041-1.1c-.028-.33-.055-.661-.1-.991-.055-.551-.124-1.129-.179-1.694,2.01-.069,7.243-.895,13.37-1.955,7.752-1.377,14.058-2.589,14-3.112Z" transform="translate(10.731 6.316)"/>
    <path id="Path_143403" data-name="Path 143403" d="M6.626,9.433c-.165-.165-2.093,1.873-2.974,5.122-.909,3.25-.289,5.99-.069,5.921.275-.028.1-2.644.95-5.687C5.359,11.76,6.846,9.6,6.626,9.433Z" transform="translate(0.82 2.248)"/>
    <path id="Path_143404" data-name="Path 143404" d="M4.361,9.451c-.207-.124-1.68,1.941-2.589,4.9s-.867,5.508-.62,5.508c.262.028.62-2.4,1.5-5.232S4.6,9.589,4.361,9.451Z" transform="translate(0 2.257)"/>
  </g>
</svg>
