<svg xmlns="http://www.w3.org/2000/svg" xmlns:xlink="http://www.w3.org/1999/xlink" width="64.943" height="87.03" viewBox="0 0 64.943 87.03">
  <defs>
    <clipPath id="clip-path">
      <rect id="Rectangle_19735" data-name="Rectangle 19735" width="64.943" height="87.03" fill="none"/>
    </clipPath>
  </defs>
  <g id="Icon" transform="translate(30)">
    <g id="Group_116426" data-name="Group 116426" transform="translate(-30)" clip-path="url(#clip-path)">
      <path id="Path_143391" data-name="Path 143391" d="M62.4,76.274A5,5,0,0,1,60.18,79.9a38.628,38.628,0,0,1-10.255,5.148,40.212,40.212,0,0,1-10.29,1.914,30.15,30.15,0,0,1-11.171-1.316,7.2,7.2,0,0,1-1.9-.871c-.5-.343-1.152-.849-1.225-1.357-.442-3.08-1.975-5.773-2.963-8.65-2.446-7.116-5.206-14.124-7.666-21.235-2.278-6.585-4.333-13.247-6.485-19.875-.6-1.856-1.207-3.712-1.795-5.573a4.329,4.329,0,0,1-.164-1.006c-.008-.114.124-.336.192-.336a.613.613,0,0,1,.461.177,5.513,5.513,0,0,1,.568,1.1c.731,2.032,1.466,4.064,2.149,6.112.618,1.851,1.176,3.722,1.751,5.588a.961.961,0,0,0,1.242.771c4.979-.8,9.99-1.421,14.937-2.379,4.039-.782,8-1.981,12-2.936,2.583-.615,5.194-1.107,7.786-1.685q2.555-.57,5.088-1.234c1.312-.345,1.39-.543,1.251-1.916q-.635-6.26-1.229-12.523c-.046-.493-.161-.555-.626-.426-3.5.971-6.993,1.937-10.5,2.852-2.23.581-4.464,1.193-6.732,1.58-5.718.974-11.457,1.822-17.186,2.731C13.274,25.213,9.136,25.89,5,26.545c-.48.076-.974.049-1.457.111a1.135,1.135,0,0,1-1.3-.783A20.714,20.714,0,0,1,.014,18.714a2.447,2.447,0,0,1,2.027-2.941c1.079-.286,2.2-.429,3.3-.61.7-.114.866-.384.718-1.138a22.761,22.761,0,0,1-.49-4.308A2.353,2.353,0,0,1,7.757,7.1c1.031-.143,2.028-.512,3.047-.755q4.687-1.117,9.378-2.214c.34-.08.681-.164,1.026-.224,7.174-1.238,14.344-2.5,21.524-3.7,3.6-.6,4.564-.033,6.081,3.231.382.822.836,1.617,1.142,2.466.262.728.719.76,1.311.589.671-.194,1.325-.455,2-.61,1.391-.317,2.224.125,2.451,1.5.332,2,.494,4.023.726,6.036.008.068-.026.142-.015.209.284,1.7.092,3.047-2.086,3.146-.549.025-.5.545-.463.983.124,1.462.168,2.933.35,4.387.819,6.528,1.564,13.068,2.549,19.571,1.08,7.127,2.344,14.228,3.631,21.322.661,3.643,1.55,7.245,2.326,10.867.184.859.664,1.781-.392,2.448a19.313,19.313,0,0,1-1.242-3.077c-.784-3.552-1.444-7.132-2.148-10.7-.068-.344-.128-.689-.175-1.036-.087-.65-.481-.8-1.047-.641-1.141.323-2.287.629-3.414,1A154.855,154.855,0,0,1,38.706,65.9c-2.665.577-5.35,1.075-7.992,1.741a30.377,30.377,0,0,1-7.662,1.123c-1.332-.009-1.514.251-1.092,1.478,1.248,3.626,2.577,7.224,3.779,10.864a4.6,4.6,0,0,0,3.48,3.235,30.444,30.444,0,0,0,12.439,1.028,48.194,48.194,0,0,0,7.574-1.613,29.368,29.368,0,0,0,11.8-6.564,9.4,9.4,0,0,1,1.359-.922M55.906,44.982c-.636-4.2-1.117-7.454-1.627-10.7-.224-1.428-.365-1.5-1.763-1.061-.731.227-1.443.527-2.186.7q-5.916,1.371-11.845,2.688c-4.224.935-8.455,1.838-12.683,2.758-.546.119-1.087.256-1.63.389a44.6,44.6,0,0,1-11.164,1.6c-.834-.01-1.033.207-.8.976.582,1.934,1.128,3.881,1.8,5.783,2.14,6.036,4.331,12.054,6.507,18.077.676,1.871.681,1.86,2.574,1.337.47-.13.96-.188,1.441-.277,5.427-1.008,10.859-1.993,16.279-3.038,1.848-.356,3.676-.833,5.5-1.31,3.437-.9,6.859-1.858,10.3-2.76,1.693-.444,1.85-.576,1.561-2.266-.789-4.618-1.614-9.23-2.259-12.9M19.4,22.869c.006.037.011.075.017.112,1.524-.231,3.055-.421,4.57-.7,5.366-.989,10.759-1.865,16.08-3.058,4.966-1.114,9.852-2.587,14.779-3.876.648-.169.7-.522.621-1.08-.313-2.078-.586-4.162-.9-6.24-.161-1.079-.192-1.119-1.356-.873-1.434.3-2.842.734-4.277,1.029-2.878.59-5.764,1.143-8.652,1.68q-7.949,1.477-15.906,2.909c-2.413.43-4.857.7-7.26,1.173-4.664.923-9.3,1.977-13.966,2.9-1.461.289-2.226.236-1.817,2.505a38.905,38.905,0,0,0,1.251,4.428c.458,1.5.534,1.549,2.062,1.322Q12.023,24,19.4,22.869M35.043,2.664c-7.221.565-14.119,2.821-21.2,4.116-1.716.314-3.406.765-5.106,1.16-1.526.354-1.869.662-2,2.229a10.985,10.985,0,0,0,.184,2.689c.279,1.665.4,1.763,2.044,1.465,4.335-.784,8.659-1.628,12.992-2.423,5.436-1,10.88-1.953,16.314-2.959,3.231-.6,6.448-1.273,9.677-1.884.674-.128,1.066-.377.759-1.1-.49-1.151-.971-2.31-1.547-3.418a2.466,2.466,0,0,0-2.987-1.288c-3.03.551-6.087.951-9.132,1.412" transform="translate(0 0)" fill="#1a1a1a"/>
      <path id="Path_143392" data-name="Path 143392" d="M54.238,210.906a3.256,3.256,0,0,1,.029.507,2.143,2.143,0,0,1-.116.387c-.188-.071-.482-.089-.546-.22a32.856,32.856,0,0,1-1.38-3.035q-1.521-4.114-2.933-8.268a11.62,11.62,0,0,1-.382-2.058,1.493,1.493,0,0,1,.124-.523c.164.121.406.205.48.367.523,1.138,1.071,2.27,1.5,3.444,1.03,2.81,2,5.642,2.99,8.468a9.328,9.328,0,0,1,.234.93" transform="translate(-33.892 -137.003)" fill="#1a1a1a"/>
      <path id="Path_143393" data-name="Path 143393" d="M189.8,74.266c.219,1.444.455,2.886.646,4.333a6.151,6.151,0,0,1-.013,1.441.546.546,0,0,1-.387.37.642.642,0,0,1-.475-.321,3.707,3.707,0,0,1-.279-.995c-.468-3.094-.961-6.186-1.358-9.289a9.4,9.4,0,0,1,.242-2.224c.8.5.841,1.344.968,2.142.24,1.511.461,3.025.691,4.538l-.036.006" transform="translate(-130.221 -46.833)" fill="#1a1a1a"/>
      <path id="Path_143394" data-name="Path 143394" d="M206.1,103.649c.041.274.1.547.12.822.026.448.327,1.071-.369,1.181-.217.035-.7-.492-.77-.826-.482-2.151-1.308-4.254-1.041-6.521a2.254,2.254,0,0,1,.332-.667c.165.178.431.333.479.538.426,1.821.813,3.651,1.212,5.479l.038-.006" transform="translate(-141.359 -67.663)" fill="#1a1a1a"/>
      <path id="Path_143395" data-name="Path 143395" d="M57.39,242.807a2.249,2.249,0,0,1,.081.615,3.611,3.611,0,0,1-.241.7c-.2-.15-.515-.263-.574-.456-.609-1.974-1.181-3.96-1.745-5.948a1.825,1.825,0,0,1,.047-.612c.217.14.555.231.632.426.683,1.728,1.32,3.474,1.97,5.214l-.171.064" transform="translate(-38.042 -164.312)" fill="#1a1a1a"/>
      <path id="Path_143396" data-name="Path 143396" d="M199.494,127.859c.062.412.084.481.081.55-.02.491.437,1.218-.381,1.319-.228.028-.707-.777-.813-1.257a6.315,6.315,0,0,1,.047-1.866c.013-.147.2-.279.306-.418.15.128.385.229.436.39.17.528.274,1.078.323,1.282" transform="translate(-137.437 -87.447)" fill="#1a1a1a"/>
      <path id="Path_143397" data-name="Path 143397" d="M70.389,258.414c-.03-.5-.059-.778-.057-1.056a1.789,1.789,0,0,1,.1-.4c.125.058.319.083.365.179.358.742.7,1.491,1.005,2.257.041.105-.152.4-.295.454s-.488,0-.548-.117a13.919,13.919,0,0,1-.566-1.315" transform="translate(-48.74 -178.069)" fill="#1a1a1a"/>
      <path id="Path_143398" data-name="Path 143398" d="M100.76,135.408a19.408,19.408,0,0,1,2.7,0,6,6,0,0,1,5.334,6.605c-.379,4.8-3.107,7.949-7.277,9.993a9.093,9.093,0,0,1-5.5.846,6.064,6.064,0,0,1-5.271-6.666,12.466,12.466,0,0,1,10.016-10.783m-2.525,16.434c3.632-.753,8.034-4.17,9-8.636a5.767,5.767,0,0,0-.619-4.437c-.388-.625-.7-.636-.965.054a8.126,8.126,0,0,1-2.882,3.788c-1.361.966-2.824,1.79-4.245,2.671-.888.551-1.8,1.066-2.669,1.646a3.957,3.957,0,0,0-1.6,2.824,1.221,1.221,0,0,0,.932,1.6c.993.253,2.028.336,3.046.492M91.9,147.094c.239.83.348,1.306.522,1.757.067.173.284.287.432.428a1.5,1.5,0,0,0,.218-.437,4.744,4.744,0,0,1,2.512-3.424c1.413-.889,2.909-1.642,4.348-2.49a10.567,10.567,0,0,0,4.107-3.775c.942-1.671.916-2.333-1.542-2.536a3.933,3.933,0,0,0-.833.074,11.038,11.038,0,0,0-9.181,7.277,13.735,13.735,0,0,0-.584,3.127" transform="translate(-62.868 -93.802)" fill="#1a1a1a"/>
    </g>
  </g>
</svg>
