<svg xmlns="http://www.w3.org/2000/svg" width="100.701" height="45.743" viewBox="0 0 100.701 45.743">
  <g id="Highlight" transform="translate(-252 -985.694)">
    <path id="Shape" d="M74.745,1.631C52.984.144,26.95,4.752,10.425,15.774,7.008,18.185,3.9,21.111,2.8,24.568a7.875,7.875,0,0,0,.977,6.654c3.533,5.353,11.931,8,19.209,9.673,15.475,3.254,32.844,3.888,48.471.886,10.661-2.036,27.1-7.662,26.478-17.337-.421-7.469-9.313-12.288-17.888-14.882C67.887,5.919,54.582,4.635,41.539,4.515a71.479,71.479,0,0,0-19.11,2.56c-5.97,1.7-11.983,4.08-16.211,7.722-.706.62-1.982-.111-1.308-.79C10.19,9.238,18.674,6.153,26.5,4.422c11.377-2.505,23.475-1.763,35.061-.544,16.123,1.86,40.38,7.348,39.091,22.47-.638,4.7-4.993,8.571-9.944,11.244-13.81,7.214-32.2,8.9-48.649,7.879-10.052-.684-20.211-2.054-29.291-5.515C5.6,37.213-.507,32.57.033,26.142,1.05,16.835,15.465,9.9,25.844,6.375A124.619,124.619,0,0,1,54.849.458,120.531,120.531,0,0,1,74.919.382c.462.038.8.348.745.693a.816.816,0,0,1-.919.557" transform="translate(252 985.694)" fill="#f0eee2"/>
    <text id="Limited" transform="translate(303.607 1015.55)" fill="#f0eee2" stroke="rgba(0,0,0,0)" stroke-miterlimit="10" stroke-width="1" font-size="18" font-family="GillSans-UltraBold, Gill Sans" font-weight="700"><tspan x="-43.141" y="0">Limited</tspan></text>
  </g>
</svg>
