<svg xmlns="http://www.w3.org/2000/svg" width="49.683" height="16.445" viewBox="0 0 49.683 16.445">
  <path id="Logo" d="M-4.923-13.064c0-2.53-3.036-2.6-4.715-2.6-4.048,0-15.111,1.725-15.111,6.325,0,4.117,14.881,3.381,14.881,6.348,0,1.909-2.737,2.277-6.417,2.277a31.032,31.032,0,0,1-5.957-1.081c-.207,0-.276.207-.276.437a1.069,1.069,0,0,0,.207.69C-21.759-.161-18.125.782-15.6.782c7.084,0,9.246-2.139,9.246-4.025,0-4.416-15.065-3.726-15.065-6.762,0-3.059,9.039-3.8,10.258-3.8,2.783,0,4.071.207,4.071,1.1,0,.759-.92,1.1-1.656,1.564-.207.115-.253.345-.253.644a.293.293,0,0,0,.322.322h.023C-7.108-10.235-4.923-11.661-4.923-13.064ZM6.025-6.44c0-.207-.138-.322-.437-.322h-.23c-.3,0-.644.046-.667.368-.115,1.679-.828,4.968-1.7,4.968-1.012,0-1.4-3.749-1.564-4.968-.023-.253-.253-.368-1.1-.368h-.46c-.276,0-.621.046-.644.368-.115,1.679-.828,4.968-1.7,4.968-1.012,0-1.4-3.749-1.564-4.968-.023-.253-.276-.368-1.1-.368-.552,0-1.035.046-1.058.345v.069C-6.211-5.336-5.636,0-2.922,0c1.38,0,2.254-1.426,2.76-2.944C.321-1.426,1.149,0,2.552,0c2.76,0,3.427-5.658,3.473-6.417Zm3.2-3.565A1.432,1.432,0,0,0,7.912-11.5H7.843a1.411,1.411,0,0,0-1.357,1.449v.069A1.4,1.4,0,0,0,7.8-8.487h.046a1.445,1.445,0,0,0,1.38-1.449Zm2.714,6.578v-.046c-.023-.414-.138-.828-.3-.828-.069,0-.115.046-.184.184-.713,1.334-1.656,2.668-2.3,2.668-.483,0-.6-.874-.6-1.909,0-.713.069-1.909.069-2.576a1.978,1.978,0,0,0-.046-.529c-.115-.23-.46-.3-.966-.3-.529,0-.782.092-.92.3a16.457,16.457,0,0,0-.184,2.622C6.509-1.656,7.13,0,8.717,0c1.748,0,2.76-2.116,3.082-2.76A1.434,1.434,0,0,0,11.937-3.427Zm6.487-.046c0-.414-.115-.828-.276-.828-.092,0-.115.046-.184.184a4.6,4.6,0,0,1-2.093,2.3,1.942,1.942,0,0,0,.437-1.219c0-2.093-2.369-2.829-2.369-4.439,0-.253-.23-.276-.713-.276H13.2c-.552,0-1.265.414-1.265.667,0,.092.023.23.023.437a4.881,4.881,0,0,1-.276,1.472,18.55,18.55,0,0,1-1.242,2.553c0,.207.092.92.3.92.506,0,1.587-2.369,1.771-3.036.092-.322.184-.6.184-.6.621,1.127,1.748,1.472,1.748,2.6a1.213,1.213,0,0,1-1.2,1.242c-.621,0-1.058-.483-1.242-.483-.092,0-.115.207-.115.46a1.829,1.829,0,0,0,.115.713C12.1-.69,12.513,0,14.4,0c2.185,0,3.45-1.886,3.887-2.76A1.416,1.416,0,0,0,18.424-3.473Zm6.51,0c0-.414-.115-.828-.276-.828-.092,0-.115.046-.184.184a4.6,4.6,0,0,1-2.093,2.3,1.942,1.942,0,0,0,.437-1.219c0-2.093-2.369-2.829-2.369-4.439,0-.253-.23-.276-.713-.276h-.023c-.552,0-1.265.414-1.265.667,0,.092.023.23.023.437a4.881,4.881,0,0,1-.276,1.472,18.55,18.55,0,0,1-1.242,2.553c0,.207.092.92.3.92.506,0,1.587-2.369,1.771-3.036.092-.322.184-.6.184-.6.621,1.127,1.748,1.472,1.748,2.6a1.213,1.213,0,0,1-1.2,1.242c-.621,0-1.058-.483-1.242-.483-.092,0-.115.207-.115.46a1.829,1.829,0,0,0,.115.713c.092.115.506.805,2.392.805,2.185,0,3.45-1.886,3.887-2.76A1.416,1.416,0,0,0,24.933-3.473Z" transform="translate(24.749 15.663)"/>
</svg>
