<svg xmlns="http://www.w3.org/2000/svg" width="92.885" height="30.745" viewBox="0 0 92.885 30.745">
  <path id="Logo" d="M-9.2-24.424c0-4.73-5.676-4.859-8.815-4.859-7.568,0-28.251,3.225-28.251,11.825,0,7.7,27.821,6.321,27.821,11.868,0,3.569-5.117,4.257-12,4.257-4.257,0-10.75-2.021-11.137-2.021s-.516.387-.516.817a2,2,0,0,0,.387,1.29c1.032.946,7.826,2.709,12.556,2.709,13.244,0,17.286-4,17.286-7.525,0-8.256-28.165-6.966-28.165-12.642,0-5.719,16.9-7.1,19.178-7.1,5.2,0,7.611.387,7.611,2.064,0,1.419-1.72,2.064-3.1,2.924-.387.215-.473.645-.473,1.2a.547.547,0,0,0,.6.6h.043C-13.29-19.135-9.2-21.8-9.2-24.424ZM11.265-12.04c0-.387-.258-.6-.817-.6h-.43c-.559,0-1.2.086-1.247.688C8.556-8.815,7.223-2.666,5.589-2.666c-1.892,0-2.623-7.009-2.924-9.288-.043-.473-.473-.688-2.064-.688h-.86c-.516,0-1.161.086-1.2.688-.215,3.139-1.548,9.288-3.182,9.288-1.892,0-2.623-7.009-2.924-9.288-.043-.473-.516-.688-2.064-.688-1.032,0-1.935.086-1.978.645v.129C-11.611-9.976-10.536,0-5.462,0-2.882,0-1.248-2.666-.3-5.5.6-2.666,2.149,0,4.772,0c5.16,0,6.407-10.578,6.493-12ZM17.243-18.7a2.677,2.677,0,0,0-2.451-2.8h-.129a2.638,2.638,0,0,0-2.537,2.709v.129a2.621,2.621,0,0,0,2.451,2.795h.086a2.7,2.7,0,0,0,2.58-2.709Zm5.074,12.3v-.086c-.043-.774-.258-1.548-.559-1.548-.129,0-.215.086-.344.344-1.333,2.494-3.1,4.988-4.3,4.988-.9,0-1.118-1.634-1.118-3.569,0-1.333.129-3.569.129-4.816a3.7,3.7,0,0,0-.086-.989c-.215-.43-.86-.559-1.806-.559-.989,0-1.462.172-1.72.559a30.768,30.768,0,0,0-.344,4.9C12.169-3.1,13.33,0,16.3,0c3.268,0,5.16-3.956,5.762-5.16A2.681,2.681,0,0,0,22.317-6.407Zm12.127-.086c0-.774-.215-1.548-.516-1.548-.172,0-.215.086-.344.344-1.075,2.021-2.193,3.569-3.913,4.3a3.631,3.631,0,0,0,.817-2.279c0-3.913-4.429-5.289-4.429-8.3,0-.473-.43-.516-1.333-.516h-.043c-1.032,0-2.365.774-2.365,1.247,0,.172.043.43.043.817a9.126,9.126,0,0,1-.516,2.752C21.114-7.31,19.523-5.2,19.523-4.9c0,.387.172,1.72.559,1.72.946,0,2.967-4.429,3.311-5.676.172-.6.344-1.118.344-1.118,1.161,2.107,3.268,2.752,3.268,4.859a2.267,2.267,0,0,1-2.236,2.322c-1.161,0-1.978-.9-2.322-.9-.172,0-.215.387-.215.86A3.42,3.42,0,0,0,22.447-1.5c.172.215.946,1.5,4.472,1.5C31,0,33.369-3.526,34.186-5.16A2.647,2.647,0,0,0,34.444-6.493Zm12.17,0c0-.774-.215-1.548-.516-1.548-.172,0-.215.086-.344.344-1.075,2.021-2.193,3.569-3.913,4.3a3.631,3.631,0,0,0,.817-2.279c0-3.913-4.429-5.289-4.429-8.3,0-.473-.43-.516-1.333-.516h-.043c-1.032,0-2.365.774-2.365,1.247,0,.172.043.43.043.817a9.126,9.126,0,0,1-.516,2.752C33.285-7.31,31.694-5.2,31.694-4.9c0,.387.172,1.72.559,1.72.946,0,2.967-4.429,3.311-5.676.172-.6.344-1.118.344-1.118,1.161,2.107,3.268,2.752,3.268,4.859A2.267,2.267,0,0,1,36.94-2.795c-1.161,0-1.978-.9-2.322-.9-.172,0-.215.387-.215.86A3.42,3.42,0,0,0,34.618-1.5c.172.215.946,1.5,4.472,1.5,4.085,0,6.45-3.526,7.267-5.16A2.647,2.647,0,0,0,46.615-6.493Z" transform="translate(46.271 29.283)" fill="#f5f1e7"/>
</svg>
