<svg xmlns="http://www.w3.org/2000/svg" width="122.875" height="118.722" viewBox="434.896 57.759 122.875 118.722"><g data-name="Mail" transform="translate(434.896 57.759)" clip-path="url(&quot;#a&quot;)"><path d="M31.615 40.406c-.252-.071 4.84-17.574 5.22-19.336.2-.93.264-3.166 1.039-3.808.51-.424 3.606-.275 4.182-.374 3.032-.524 5.954-1.497 8.906-2.34 14.96-4.278 30.503-5.902 45.941-7.404 7.023-.683 14.075-.833 21.096-1.564.04-.004 2.568-.33 2.53-.358.644.466.539-.85.006.245-.464.953-3.921 2.004-5.022 2.425-3.082 1.181-6.288 2.003-9.358 3.213-7.13 2.81-14.537 4.674-21.792 7.155-6.6 2.257-13.25 4.47-19.82 6.784-3.79 1.334-7.65 2.35-11.45 3.637-3.257 1.103-6.729 1.753-9.912 3.014-2.705 1.074-4.279 2.498-6.462 4.346-2.61 2.21-5.352 4.17-7.691 6.69-.226.243-.06.426.243.43l.294.004c.445.006 1.252-.657.459-.668 1.283.018 3.116-2.668 3.986-3.44 1.382-1.226 2.966-2.203 4.348-3.434 3.777-3.365 7.947-4.002 12.583-5.54 7.834-2.602 15.826-4.737 23.591-7.546 8.83-3.193 17.76-5.818 26.649-8.774 4.01-1.334 7.89-3.027 11.909-4.368 3.402-1.136 6.656-2.445 9.584-4.547.417-.3.117-.524-.286-.501-4.973.276-9.932 1.266-14.926 1.499-4.818.224-9.586.56-14.386 1.043-10.246 1.033-20.497 2.194-30.597 4.24-5.128 1.04-10.135 2.42-15.16 3.857-3.03.867-5.898 1.165-8.988 1.607-.535.077-.932-.058-1.398.244-.86.558-.86 2.421-1.046 3.239-.495 2.189-.978 4.375-1.536 6.55-1.17 4.552-3.817 9.394-4.066 14.067-.008.156.09.207.229.246l.38.107c.375.106 1.382-.453.721-.64" fill-rule="evenodd" data-name="Path 133514"/><path d="M121.282 4.613c-1.076.397-1.681 1.227-2.483 2.02-1.687 1.67-3.575 3.145-5.388 4.672-3.335 2.81-6.95 5.22-10.379 7.908-8.089 6.341-16.147 12.74-24.85 18.234-7.807 4.928-16.261 8.43-23.563 14.154-.566.444-1.406 1.412-2.267 1.067-.728-.293-1.56-2.818-1.936-3.671-.912-2.072-1.689-4.228-2.403-6.376-1.245-3.74-2.263-7.959-4.802-11.04-.217-.263-.953-.051-1.096.218l-.147.277c-.261.491.915.368 1.097.024l.147-.276-1.096.218c3.125 3.792 4.16 9.528 5.854 14.08.631 1.695 2.016 7.372 4.398 7.544 2.107.153 4.72-3.004 6.226-4.108 4.674-3.426 9.903-5.723 14.94-8.55 8.774-4.922 16.961-10.979 24.87-17.177a628.489 628.489 0 0 1 12.23-9.327c1.975-1.472 3.833-3.089 5.713-4.68 1.45-1.227 3.615-4.067 5.401-4.727.77-.285.069-.682-.466-.484" fill-rule="evenodd" data-name="Path 133515"/><path d="M30.027 43.074c4.869-2.374 10.446-3.182 15.14-5.892.687-.396-.346-.571-.73-.35-4.578 2.642-10.108 3.434-14.876 5.758-.733.358-.06.74.466.484" fill-rule="evenodd" data-name="Path 133516"/><path d="m30.383 42.758 1.493-6.491c.1-.436-1.085-.255-1.178.147l-1.493 6.491c-.1.436 1.085.255 1.178-.147" fill-rule="evenodd" data-name="Path 133517"/><path d="M121.982 4.071c-4.095-.738-8.317-.135-12.443-.05-4.948.1-9.944-.28-14.889-.461-10.081-.369-20.2-.936-30.263-1.622C54.55 1.266 44.692.48 34.83.228c-3.995-.1-8.103-.475-12.08.03-2.558.326-5.796.514-8.115 1.69-.177.09-.555.343-.235.527C19.21 5.25 23.331 8.64 27.8 11.884c1.566 1.137 3.198 2.01 4.872 2.966 1.31.749 2.292 1.709 3.767 2.086.376.097 1.384-.47.72-.64-1.784-.456-4.766-2.553-6.339-3.538-2.421-1.516-4.55-3.407-6.764-5.196-1.696-1.37-3.502-2.54-5.36-3.678-1.012-.619-2.974-1.056-1.59-2.001.38-.259 1.36-.212 1.825-.294 11.004-1.943 22.573-.316 33.677.256 11.15.573 22.288 1.397 33.436 2.022 5.882.33 11.772.464 17.659.695 5.76.226 11.876-.876 17.559.149.375.067 1.385-.52.72-.64" fill-rule="evenodd" data-name="Path 133518"/><path d="M37.27 16.714c-.74.787-.824 1.068-1.128 2.395l-.781 3.397c-.537 2.338-.998 4.711-1.737 6.983-1.518 4.671-4.37 8.975-4.991 13.944-.056.448.776.195.954.1 1.017-.541 1.97-1.625 3.007-2.066.754-.32.066-.71-.467-.484-1.228.52-2.079 1.567-3.27 2.2l.954.102c.618-4.934 3.474-9.28 4.992-13.944.74-2.274 1.197-4.643 1.736-6.983.433-1.888 1.258-3.99 1.32-5.919.002-.094-.023-.172-.12-.21-.092-.038-.18-.074-.272-.11-.272-.11-.733-.032-.94.188l-.2.213c-.471.501.675.48.944.194" fill-rule="evenodd" data-name="Path 133519"/><path d="m25.219 50.273-.117-.216c-.183-.338-.842-.154-1.062.061-4.174 4.087-7.982 9.281-10.832 14.373-2.486 4.44-5.076 10.37-4.96 15.555.07 3.156 2.444 6.62 5.943 6.224 3.29-.373 5.212-4.18 5.221-7.174.008-2.922-1.727-5.176-4.781-4.473-3.878.894-5.58 5.595-7.173 8.74C4.75 88.713 3.29 94.56 1.846 100.353c-.794 3.186-1.767 6.499-1.843 9.804-.066 2.852 1.159 5.457 1.09 8.297-.01.483 1.17.242 1.18-.148.083-3.49-1.322-6.569-.936-10.142.427-3.93 1.627-7.87 2.656-11.677 1.163-4.303 2.317-8.568 4.3-12.58a95.393 95.393 0 0 1 2.448-4.583c.343-.607.708-1.65 1.276-2.097l5.32-1.094c.36.493.596 1.031.709 1.614.38 1.423.15 2.998-.369 4.356-1.25 3.28-4.853 4.362-7.105 1.394-2.433-3.206-.513-8.418.62-11.819 2.604-7.811 7.91-15.606 13.794-21.366l-1.062.061.117.217c.215.398 1.356.013 1.178-.316" fill-rule="evenodd" data-name="Path 133520"/></g><defs><clipPath id="a"><path d="M0 0h122.875v118.722H0V0z" data-name="Rectangle 17985"/></clipPath></defs></svg>