<svg id="Group_116531" data-name="Group 116531" xmlns="http://www.w3.org/2000/svg" xmlns:xlink="http://www.w3.org/1999/xlink" width="85.476" height="80.156" viewBox="0 0 85.476 80.156">
  <defs>
    <clipPath id="clip-path">
      <rect id="Rectangle_19737" data-name="Rectangle 19737" width="85.476" height="80.156" fill="none"/>
    </clipPath>
  </defs>
  <g id="Group_116530" data-name="Group 116530" clip-path="url(#clip-path)">
    <path id="Path_143406" data-name="Path 143406" d="M95.061,26.621c0,5.716.129,11.437-.046,17.148a39.37,39.37,0,0,1-1.485,11c-.2.63-.393,1.268-.652,1.875a3.474,3.474,0,0,1-2.445,2.088,45.662,45.662,0,0,1-11.6,1.517c-3.853.115-7.711.06-11.566.023a62.068,62.068,0,0,0-9.5.768,8.19,8.19,0,0,0-4.309,1.9c-1.2,1.045-2.362,2.141-3.5,3.257C46.017,70.054,42.1,73.94,38.157,77.8c-.759.743-1.575,1.429-2.388,2.113-.47.4-.863.323-.981-.337a5.891,5.891,0,0,1-.246-1.935c.661-3.777,1.4-7.541,2.126-11.306.277-1.428.644-2.84.907-4.27.239-1.3-.1-1.731-1.406-1.8a10.441,10.441,0,0,0-2.586.064,23.663,23.663,0,0,1-7.72-.038,4.058,4.058,0,0,1-3.832-3.222,27.9,27.9,0,0,1-.738-4.085,66.091,66.091,0,0,1-.3-6.96c.114-4.976.373-9.948.575-14.922.013-.332.054-.663.063-.995.146-5.579.266-11.159.444-16.736q.118-3.68.431-7.353a4.11,4.11,0,0,1,3.006-3.605,19.406,19.406,0,0,1,6.017-1.206c8.494-.3,17-.405,25.483-.886,6.115-.346,12.222-.38,18.33-.271A72.439,72.439,0,0,1,88.2,1.216a26.872,26.872,0,0,1,4.684,1.578,3.123,3.123,0,0,1,1.767,2.72,42.123,42.123,0,0,1,.415,5.152c.051,5.317.019,10.636.019,15.954h-.029m-1.216.932h-.053c0-5.182.03-10.364-.016-15.546-.016-1.855-.188-3.711-.337-5.563a3.085,3.085,0,0,0-2.344-3.108c-2.317-.527-4.659-.99-7.015-1.288s-4.757-.451-7.142-.513c-4.71-.124-9.425-.255-14.135-.174-5.373.092-10.741.452-16.114.618-3.253.1-6.515-.04-9.765.107-2.974.134-5.955.383-8.9.81-3.637.526-4.654,1.93-4.719,5.632-.126,7.237-.313,14.473-.476,21.709-.008.332-.032.664-.049,1-.225,4.438-.549,8.874-.639,13.315-.059,2.913.166,5.838.375,8.749a18.284,18.284,0,0,0,.727,3.472,2.9,2.9,0,0,0,2.919,2.276c2.44.007,4.865.639,7.33.071a10.1,10.1,0,0,1,2.98-.053c1.742.133,2.5,1.111,2.156,2.812-.615,3.045-1.339,6.068-1.94,9.115-.422,2.137-.727,4.3-1.052,6.452a2.863,2.863,0,0,0,.171.91,5.561,5.561,0,0,0,.632-.462q1.65-1.591,3.28-3.2,5.806-5.75,11.605-11.507a10.255,10.255,0,0,1,5.818-3.235c3.608-.473,7.247-1.073,10.888-.714,4.335.427,8.626-.165,12.929-.3a35.025,35.025,0,0,0,9.015-1.339A2.568,2.568,0,0,0,91.811,56c.2-.487.333-1,.491-1.508A43.732,43.732,0,0,0,93.8,42.7c.167-5.044.04-10.1.04-15.146" transform="translate(-14.87 0)" fill="#1a1a1a"/>
    <path id="Path_143407" data-name="Path 143407" d="M283.457,20.565c-.2,1.771-.391,3.543-.612,5.311-.019.151-.239.277-.365.415-.1-.122-.274-.233-.3-.367a7.6,7.6,0,0,1-.083-1.188c.008-4.508.007-9.016.054-13.524.007-.672-.269-1.5.587-1.95.065.652.161,1.3.189,1.956.134,3.109.25,6.219.372,9.328l.154.018" transform="translate(-199.923 -6.565)" fill="#1a1a1a"/>
    <path id="Path_143408" data-name="Path 143408" d="M11.817,116.924c-.146,2.51-.28,5.02-.448,7.528a6.49,6.49,0,0,1-.318,1.339,2.774,2.774,0,0,1-.271.514,2.843,2.843,0,0,1-.143-.553,27.77,27.77,0,0,1-.144-4.936c.217-1.833.114-3.7.156-5.557a12.782,12.782,0,0,1,.1-1.783c.044-.266.326-.493.5-.737a3.329,3.329,0,0,1,.463.812,5.347,5.347,0,0,1,.074,1.186c.009.728,0,1.457,0,2.186l.033,0" transform="translate(-7.383 -79.897)" fill="#1a1a1a"/>
    <path id="Path_143409" data-name="Path 143409" d="M290.536,57.885c-.129,1.073-.331,2.775-.541,4.477a2,2,0,0,1-.123.374c-.071-.106-.187-.2-.207-.32a11.013,11.013,0,0,1-.315-2.144c.066-2.316.217-4.631.349-6.945a1.527,1.527,0,0,1,.2-.468c.129.136.36.264.371.408.1,1.32.156,2.642.261,4.617" transform="translate(-205.061 -37.462)" fill="#1a1a1a"/>
    <path id="Path_143410" data-name="Path 143410" d="M.1,153.3c0-.265-.019-.532,0-.795.071-.826-.2-1.737.575-2.4.052.724.1,1.448.157,2.171.124,1.583.256,3.166.373,4.749a2.139,2.139,0,0,1-.057.787c-.043.133-.26.231-.418.292-.04.015-.22-.166-.232-.269-.177-1.509-.336-3.019-.5-4.53l.1-.01" transform="translate(0 -106.383)" fill="#1a1a1a"/>
    <path id="Path_143411" data-name="Path 143411" d="M281.982,84c.041-.726.082-1.571.147-2.415.006-.075.174-.191.267-.191s.213.1.307.177a.246.246,0,0,1,.084.167c0,1.7,0,3.4-.037,5.093,0,.106-.248.225-.4.3-.03.014-.214-.167-.221-.265-.06-.913-.1-1.826-.146-2.863" transform="translate(-199.839 -57.686)" fill="#1a1a1a"/>
    <path id="Path_143412" data-name="Path 143412" d="M10.785,175.329a8.623,8.623,0,0,1,.008-1.1c.064-.381-.286-.994.431-1.018.123,0,.4.632.376.954-.07.9-.257,1.793-.412,2.686-.017.1-.121.183-.185.274a1.445,1.445,0,0,1-.131-.363c-.045-.583-.072-1.168-.087-1.432" transform="translate(-7.627 -122.753)" fill="#1a1a1a"/>
    <path id="Path_143413" data-name="Path 143413" d="M97.72,74.787C85.559,74.5,75.638,65.282,75.656,52.493c.017-12.233,9.507-21.5,21.552-21.86a21.193,21.193,0,0,1,16.384,6.6A20.833,20.833,0,0,1,119.8,52.72c-.283,13.115-10.231,21.8-22.079,22.068M76.808,52.64a20.9,20.9,0,0,0,41.792-.035A21.138,21.138,0,0,0,97.849,31.7,20.928,20.928,0,0,0,76.808,52.64" transform="translate(-53.617 -21.701)" fill="#1a1a1a"/>
    <path id="Path_143414" data-name="Path 143414" d="M125.356,127.191c-1.3-.207-2.628-.317-3.9-.637-4.169-1.048-6.389-4.014-7.552-7.938a5.271,5.271,0,0,1-.084-1.576c0-.131.205-.258.316-.387.134.125.325.224.392.378.627,1.45,1.115,2.974,1.871,4.351a8.169,8.169,0,0,0,6.2,4.2,14.012,14.012,0,0,0,8.366-.846,10.033,10.033,0,0,0,5.074-5.356c.234-.546.365-1.14.631-1.669.111-.222.448-.331.683-.492.134.281.378.564.374.844a3.814,3.814,0,0,1-.316,1.134c-1.8,5.17-5.942,7.715-11.036,7.864-.332.01-.664,0-1,0-.007.044-.014.088-.021.132" transform="translate(-80.651 -82.672)" fill="#1a1a1a"/>
    <path id="Path_143415" data-name="Path 143415" d="M132,75.836a5.743,5.743,0,0,1-1.328,3.716,1.424,1.424,0,0,1-2.573-.282,6.6,6.6,0,0,1,.349-6.3,1.678,1.678,0,0,1,1.655-.91,1.505,1.505,0,0,1,1.37,1.258c.2.832.353,1.674.527,2.512" transform="translate(-90.334 -51.067)" fill="#1a1a1a"/>
    <path id="Path_143416" data-name="Path 143416" d="M164.169,75.3a24.3,24.3,0,0,1-1.075,3.359c-.609,1.27-1.86,1.252-2.669.09-1.039-1.495-.882-5,.288-6.429a1.555,1.555,0,0,1,2.549.089,5.012,5.012,0,0,1,.907,2.891" transform="translate(-113.201 -50.813)" fill="#1a1a1a"/>
  </g>
</svg>
