<svg xmlns="http://www.w3.org/2000/svg" xmlns:xlink="http://www.w3.org/1999/xlink" width="19" height="19" viewBox="0 0 19 19">
  <defs>
    <clipPath id="clip-path">
      <rect width="19" height="19" fill="none"/>
    </clipPath>
  </defs>
  <g id="Repeat_Grid_14" data-name="Repeat Grid 14" clip-path="url(#clip-path)">
    <g transform="translate(-1260 -611)">
      <circle id="Ellipse_83" data-name="Ellipse 83" cx="1.5" cy="1.5" r="1.5" transform="translate(1260 611)"/>
    </g>
    <g transform="translate(-1253 -611)">
      <circle id="Ellipse_83-2" data-name="Ellipse 83" cx="1.5" cy="1.5" r="1.5" transform="translate(1260 611)"/>
    </g>
    <g transform="translate(-1246 -611)">
      <circle id="Ellipse_83-3" data-name="Ellipse 83" cx="1.5" cy="1.5" r="1.5" transform="translate(1260 611)"/>
    </g>
    <g transform="translate(-1260 -604)">
      <circle id="Ellipse_83-4" data-name="Ellipse 83" cx="1.5" cy="1.5" r="1.5" transform="translate(1260 611)"/>
    </g>
    <g transform="translate(-1253 -604)">
      <circle id="Ellipse_83-5" data-name="Ellipse 83" cx="1.5" cy="1.5" r="1.5" transform="translate(1260 611)"/>
    </g>
    <g transform="translate(-1246 -604)">
      <circle id="Ellipse_83-6" data-name="Ellipse 83" cx="1.5" cy="1.5" r="1.5" transform="translate(1260 611)"/>
    </g>
    <g transform="translate(-1260 -597)">
      <circle id="Ellipse_83-7" data-name="Ellipse 83" cx="1.5" cy="1.5" r="1.5" transform="translate(1260 611)"/>
    </g>
    <g transform="translate(-1253 -597)">
      <circle id="Ellipse_83-8" data-name="Ellipse 83" cx="1.5" cy="1.5" r="1.5" transform="translate(1260 611)"/>
    </g>
    <g transform="translate(-1246 -597)">
      <circle id="Ellipse_83-9" data-name="Ellipse 83" cx="1.5" cy="1.5" r="1.5" transform="translate(1260 611)"/>
    </g>
  </g>
</svg>
