<svg xmlns="http://www.w3.org/2000/svg" width="21.14" height="21.14" viewBox="12 9.48 21.14 21.14"><path d="m32.881 29.116-6.011-6.011a8.327 8.327 0 0 0 1.865-5.257c0-4.614-3.754-8.368-8.367-8.368-4.614 0-8.368 3.754-8.368 8.368 0 4.613 3.754 8.368 8.368 8.368 1.99 0 3.818-.702 5.256-1.866l6.012 6.012a.878.878 0 0 0 1.246 0 .88.88 0 0 0 0-1.246Zm-12.513-4.662a6.613 6.613 0 0 1-6.606-6.606 6.613 6.613 0 0 1 6.606-6.606 6.613 6.613 0 0 1 6.606 6.606 6.613 6.613 0 0 1-6.606 6.606Z" fill-rule="evenodd" data-name="search"/></svg>