<svg xmlns="http://www.w3.org/2000/svg" xmlns:xlink="http://www.w3.org/1999/xlink" width="54.431" height="71.466" viewBox="0 0 54.431 71.466">
  <defs>
    <clipPath id="clip-path">
      <rect id="Rectangle_19734" data-name="Rectangle 19734" width="54.431" height="71.466" fill="none"/>
    </clipPath>
  </defs>
  <g id="Icon" transform="translate(0 0)">
    <g id="Group_116424" data-name="Group 116424" transform="translate(0 0)" clip-path="url(#clip-path)">
      <path id="Path_143388" data-name="Path 143388" d="M50.393,22.657a7.884,7.884,0,0,0-3.961-1.069,36.86,36.86,0,0,0-.7-8.769,21.427,21.427,0,0,0-3.176-7.568,11.021,11.021,0,0,0-5.675-4.163A21.073,21.073,0,0,0,20,2.674a10.321,10.321,0,0,0-4.314,4.691c-1.183,2.135-2.161,6.108-2.726,8.475a27.891,27.891,0,0,0-1.188,7.188c-.384.039-.768.073-1.151.116-2.583.286-4.974.6-7.128,2.206C.937,27.26.3,30.507.17,33.518c-.134,2.964-.141,5.936-.156,8.9-.034,6.418,0,12.837.06,19.255q0,.595.011,1.188c0,.032.011.06.014.092a.878.878,0,0,0-.008.175c.524,3.41,1.415,8.15,5.708,8.309,2.211.081,4.442-.062,6.651-.163,7.194-.33,14.383-.821,21.567-1.331q4.75-.338,9.5-.708c1.572-.124,3.176-.181,4.737-.416a7.555,7.555,0,0,0,4.984-3.856,8.794,8.794,0,0,0,1.144-4.111c.117-2.945.017-5.9-.055-8.847-.173-7.07-.4-14.158-.916-21.212-.2-2.808-.433-6.458-3.013-8.14m-35.845-6.6A31.968,31.968,0,0,1,16.32,9.715,12.515,12.515,0,0,1,19.7,4.658c3.991-3.275,9.888-4.1,14.816-2.935a12.058,12.058,0,0,1,6.028,3.218,13.483,13.483,0,0,1,2.957,6.19,37.979,37.979,0,0,1,.955,10.436c-.519.01-1.033.025-1.522.028-.474,0-.947.016-1.421.021a40.847,40.847,0,0,0-.277-5.08c-.369-3.215-1.077-6.957-3.321-9.439a11.07,11.07,0,0,0-5.658-3.286,10.907,10.907,0,0,0-6.687.649,9.608,9.608,0,0,0-4.339,3.385,18.256,18.256,0,0,0-2.051,4.745c-.983,3.283-1.386,6.666-2.108,10q-1.657.113-3.311.251a49.747,49.747,0,0,1,.782-6.783m24.622-.033a40.6,40.6,0,0,1,.361,4.651v.018c0,.072,0,.144,0,.216,0,.136,0,.27,0,.4,0,.111,0,.221,0,.332-6.269.1-12.54.355-18.8.715-.538.031-1.078.065-1.616.1.508-2.474.847-4.983,1.452-7.44.695-2.822,1.636-6.394,4.12-8.028A10.271,10.271,0,0,1,30.445,5.1a8.294,8.294,0,0,1,5.373,2.2c2.086,1.85,2.978,6.04,3.351,8.731m12.515,19.1c.2,3.618.347,7.24.478,10.862.127,3.582.238,7.144.269,10.661.011,1.23.017,2.46-.022,3.688a7.571,7.571,0,0,1-.657,3.207c-.709,1.48-2.2,3.09-3.857,3.323-.548.077-1.1.112-1.652.16-2.436.213-4.874.4-7.312.579-7.122.532-14.247,1.022-21.378,1.428-2.913.167-5.828.326-8.745.413q-.4.013-.8.021c-.05,0-.224.005-.263.005l-.289.005c-.387,0-.773.006-1.16,0A3,3,0,0,1,3.919,68.6c-1.351-1.486-1.567-3.847-1.857-5.745-.049-4.7-.3-10.387-.3-15.083,0-3.54.224-6.086.276-9.627A48.352,48.352,0,0,1,2.286,31.9a7.275,7.275,0,0,1,2.164-4.769A9.562,9.562,0,0,1,6.9,25.757l.019-.007-.046.011.052-.014a.929.929,0,0,1,.139-.037l.028-.007c.19-.045.38-.089.571-.126a83.621,83.621,0,0,1,8.628-1.186c7.45-.58,12.51-.875,19.978-1.056,2.6-.063,5.326-.276,8.021-.225a16.969,16.969,0,0,1,4.489.924c1.8.776,2.131,2.888,2.4,4.613a63.637,63.637,0,0,1,.5,6.473" transform="translate(0 0)" fill="#232222"/>
      <path id="Path_143389" data-name="Path 143389" d="M6.777,24.649l-.138.037-.006,0c.1-.025.141-.037.144-.039" transform="translate(0.286 1.062)" fill="#232222"/>
      <path id="Path_143390" data-name="Path 143390" d="M26.484,39.3A2.3,2.3,0,0,0,28.24,36.9c.1-2.139-2.107-2.65-3.767-2.395s-2.651,2.107-2.044,3.288A2.87,2.87,0,0,0,24.345,39.2s-.065,5.108,0,5.523c.127.83,1.021,1.118,1.724.16.351-.479.416-5.587.416-5.587" transform="translate(2.959 5.805)" fill="#232222"/>
    </g>
  </g>
</svg>
