<svg xmlns="http://www.w3.org/2000/svg" width="12.278" height="13.89" viewBox="0 0 12.278 13.89">
  <path id="Path_133525" data-name="Path 133525" d="M14.389-12.278a.874.874,0,0,1-.379.7,1.271,1.271,0,0,1-.8.3A2.192,2.192,0,0,1,11.65-12.1q-.6-.693-1.192-1.4a16.772,16.772,0,0,0-1.676-1.176q0,.145-.032.443a4.593,4.593,0,0,0-.032.459A7.19,7.19,0,0,0,9.168-11.7,7.178,7.178,0,0,1,9.62-9.636a1.191,1.191,0,0,1-.395.87,1.246,1.246,0,0,1-.894.387,1.187,1.187,0,0,1-.886-.411,1.3,1.3,0,0,1-.387-.91l-.081-.177a6.859,6.859,0,0,1,.354-1.4,10.958,10.958,0,0,0,.58-3.335,9.693,9.693,0,0,0-2.675,2.224,2.513,2.513,0,0,1-1.74,1.08,1.379,1.379,0,0,1-.927-.338,1.094,1.094,0,0,1-.395-.87l-.064-.032q0-1.305,2.4-1.644a9.091,9.091,0,0,0,3-1.144,6.976,6.976,0,0,0-1.466-.693q-1.192-.29-2.369-.58-1.563-.5-1.563-1.482l.064-.1a1.065,1.065,0,0,1,.371-.83,1.287,1.287,0,0,1,.886-.33,2.4,2.4,0,0,1,1.644.87l1.305,1.434q.274.226,1.531,1.015A10.337,10.337,0,0,0,7.4-19.352a12.34,12.34,0,0,1-.338-1.321l-.081-.1a1.551,1.551,0,0,1,.395-1.039,1.22,1.22,0,0,1,.959-.459,1.125,1.125,0,0,1,.943.451A1.672,1.672,0,0,1,9.62-20.77a9.363,9.363,0,0,1-.451,2.288,9.482,9.482,0,0,0-.451,2.449A11.792,11.792,0,0,0,11.3-18.1q1.192-1.321,1.982-1.321,1.112,0,1.112,1.321a1.307,1.307,0,0,1-.822,1.289,8.488,8.488,0,0,1-1.611.387A9.7,9.7,0,0,0,9.2-15.34,8.813,8.813,0,0,0,11.988-14.2a6.731,6.731,0,0,1,1.644.5A1.509,1.509,0,0,1,14.389-12.278Z" transform="translate(-2.111 22.269)" fill="#f5f1e7"/>
</svg>
